<svg width="448" height="512" viewBox="0 0 448 512" fill="none" xmlns="http://www.w3.org/2000/svg">
<path d="M352 128C352 153.316 344.493 178.063 330.428 199.113C316.363 220.162 296.372 236.569 272.984 246.257C249.595 255.945 223.858 258.479 199.028 253.541C174.199 248.602 151.392 236.411 133.49 218.51C115.589 200.609 103.398 177.801 98.4595 152.972C93.5206 128.142 96.0555 102.405 105.743 79.0165C115.431 55.6276 131.838 35.6367 152.887 21.5719C173.937 7.50707 198.684 0 224 0C257.948 0 290.505 13.4857 314.51 37.4903C338.514 61.495 352 94.0523 352 128Z" fill="white"/>
<path d="M313.6 288H296.9C274.042 298.54 249.171 303.997 224 303.997C198.829 303.997 173.958 298.54 151.1 288H134.4C98.7573 288.008 64.5768 302.17 39.3736 327.374C14.1705 352.577 0.00795329 386.757 0 422.4L0 464C0 476.73 5.05713 488.939 14.0589 497.941C23.0606 506.943 35.2696 512 48 512H400C412.73 512 424.939 506.943 433.941 497.941C442.943 488.939 448 476.73 448 464V422.4C447.992 386.757 433.83 352.577 408.626 327.374C383.423 302.17 349.243 288.008 313.6 288Z" fill="white"/>
</svg>
